<svg width="45" height="41" viewBox="0 0 45 41" fill="none" xmlns="http://www.w3.org/2000/svg">
<path d="M22.0762 0.5C22.2627 0.5 22.4345 0.604073 22.5205 0.769531L28.9121 13.0596L43.2217 15.0449C43.4132 15.0715 43.572 15.2062 43.6299 15.3906C43.6877 15.575 43.6341 15.7761 43.4922 15.9072L33.1543 25.4609L35.5938 38.9512C35.6274 39.1373 35.5528 39.3269 35.4014 39.4404C35.2501 39.5536 35.048 39.5716 34.8789 39.4873L22.0762 33.0986L9.27444 39.4873C9.10514 39.5718 8.90239 39.5539 8.75101 39.4404C8.59962 39.3269 8.52596 39.1374 8.5596 38.9512L10.9971 25.46L0.660187 15.9072C0.518523 15.7761 0.46487 15.5748 0.522491 15.3906C0.580376 15.2062 0.740202 15.0715 0.931671 15.0449L15.2393 13.0596L21.6328 0.769531C21.7189 0.604166 21.8898 0.500117 22.0762 0.5Z" fill="#007BCF" stroke="white" stroke-linecap="round" stroke-linejoin="round"/>
</svg>
