<svg width="50" height="47" viewBox="0 0 50 47" fill="none" xmlns="http://www.w3.org/2000/svg">
<mask id="path-1-outside-1_166_225" maskUnits="userSpaceOnUse" x="0" y="-0.000366211" width="50" height="47" fill="black">
<rect fill="white" y="-0.000366211" width="50" height="47"/>
<path d="M26.8359 4.94983C31.9062 -0.316632 40.127 -0.316632 45.1973 4.94983C50.2673 10.2162 50.2673 18.7547 45.1973 24.0211L43.3604 25.9274L43.3613 25.9283L25 44.9996L6.63867 25.9283V25.9274L4.80273 24.0211C-0.267563 18.7547 -0.267563 10.2163 4.80273 4.94983C9.87304 -0.31656 18.0938 -0.316607 23.1641 4.94983L25 6.85608L26.8359 4.94983Z"/>
</mask>
<path d="M26.8359 4.94983L27.5562 5.64353L27.5563 5.64339L26.8359 4.94983ZM45.1973 4.94983L45.9177 4.25628L45.9177 4.25627L45.1973 4.94983ZM45.1973 24.0211L45.9173 24.715L45.9177 24.7147L45.1973 24.0211ZM43.3604 25.9274L42.6403 25.2335L41.9591 25.9403L42.6532 26.6345L43.3604 25.9274ZM43.3613 25.9283L44.0817 26.6219L44.7623 25.9151L44.0684 25.2212L43.3613 25.9283ZM25 44.9996L24.2796 45.6932L25 46.4414L25.7204 45.6932L25 44.9996ZM6.63867 25.9283H5.63867V26.3315L5.91828 26.6219L6.63867 25.9283ZM6.63867 25.9274H7.63867V25.5241L7.35894 25.2337L6.63867 25.9274ZM4.80273 24.0211L4.08234 24.7147L4.08247 24.7148L4.80273 24.0211ZM4.80273 4.94983L4.08234 4.25626L4.08234 4.25627L4.80273 4.94983ZM23.1641 4.94983L22.4437 5.64339L22.4438 5.64353L23.1641 4.94983ZM25 6.85608L24.2797 7.54978L25 8.29763L25.7203 7.54978L25 6.85608ZM26.8359 4.94983L27.5563 5.64339C32.2333 0.785514 39.7999 0.785514 44.4769 5.64339L45.1973 4.94983L45.9177 4.25627C40.454 -1.41878 31.5792 -1.41878 26.1155 4.25627L26.8359 4.94983ZM45.1973 4.94983L44.4769 5.64338C49.1741 10.5226 49.1741 18.4484 44.4769 23.3276L45.1973 24.0211L45.9177 24.7147C51.3605 19.061 51.3605 9.90991 45.9177 4.25628L45.1973 4.94983ZM45.1973 24.0211L44.4772 23.3272L42.6403 25.2335L43.3604 25.9274L44.0804 26.6213L45.9173 24.715L45.1973 24.0211ZM43.3604 25.9274L42.6532 26.6345L42.6542 26.6355L43.3613 25.9283L44.0684 25.2212L44.0675 25.2203L43.3604 25.9274ZM43.3613 25.9283L42.6409 25.2348L24.2796 44.3061L25 44.9996L25.7204 45.6932L44.0817 26.6219L43.3613 25.9283ZM25 44.9996L25.7204 44.3061L7.35906 25.2348L6.63867 25.9283L5.91828 26.6219L24.2796 45.6932L25 44.9996ZM6.63867 25.9283H7.63867V25.9274H6.63867H5.63867V25.9283H6.63867ZM6.63867 25.9274L7.35894 25.2337L5.523 23.3274L4.80273 24.0211L4.08247 24.7148L5.91841 26.6211L6.63867 25.9274ZM4.80273 24.0211L5.52313 23.3276C0.825638 18.4483 0.825639 10.5226 5.52313 5.64339L4.80273 4.94983L4.08234 4.25627C-1.36076 9.90996 -1.36076 19.061 4.08234 24.7147L4.80273 24.0211ZM4.80273 4.94983L5.52313 5.6434C10.2001 0.785579 17.7668 0.785544 22.4437 5.64339L23.1641 4.94983L23.8845 4.25627C18.4208 -1.41876 9.546 -1.4187 4.08234 4.25626L4.80273 4.94983ZM23.1641 4.94983L22.4438 5.64353L24.2797 7.54978L25 6.85608L25.7203 6.16238L23.8843 4.25613L23.1641 4.94983ZM25 6.85608L25.7203 7.54978L27.5562 5.64353L26.8359 4.94983L26.1157 4.25613L24.2797 6.16238L25 6.85608Z" fill="white" mask="url(#path-1-outside-1_166_225)"/>
</svg>
